<svg width="64" height="64" viewBox="0 0 64 64" fill="none" xmlns="http://www.w3.org/2000/svg">
<rect width="64" height="64" fill="#C4C4C4"/>
<path d="M57 52.2239C57 54.5097 56.2991 56.0292 55.1458 57.0986C53.9542 58.2034 52.1716 58.9287 49.8295 59.3737C46.1341 60.0758 41.4175 60.0258 36.2169 59.9708C34.7688 59.9554 33.2831 59.9397 31.7715 59.9397C30.2561 59.9397 28.794 59.9558 27.3803 59.9714C25.5567 59.9915 23.8135 60.0107 22.1397 59.9933C19.1896 59.9626 16.5999 59.8168 14.4566 59.3766C12.3098 58.9356 10.7192 58.2201 9.66355 57.1347C8.63292 56.0749 8 54.5457 8 52.2239C8 47.5852 10.5536 43.3025 14.848 40.1432C19.142 36.9842 25.1221 35 31.7715 35C38.425 35 44.7834 36.9868 49.4536 40.1644C54.1354 43.35 57 47.6351 57 52.2239Z" stroke="black" stroke-width="2"/>
<path d="M47 19.5C47 26.8655 40.3792 33 32 33C23.6208 33 17 26.8655 17 19.5C17 12.1345 23.6208 6 32 6C40.3792 6 47 12.1345 47 19.5Z" stroke="black" stroke-width="2"/>
</svg>
