<svg width="66" height="65" viewBox="0 0 66 65" fill="none" xmlns="http://www.w3.org/2000/svg">
<rect x="1.42244" width="63.1551" height="61.3517" fill="#9CE6DD"/>
<path d="M1 28.2483L7.12541 23.8345L30.571 29.5724L32.1551 32.2207L37.1188 23.8345L55.0726 16.7724L61.6205 18.7586L65 22.5104V47.669V64H1V28.2483Z" fill="#C59878"/>
<path d="M65 47.669L55.0726 38.4H35.8515L32.1551 32.2207M65 47.669V64H1V28.2483L7.12541 23.8345L30.571 29.5724L32.1551 32.2207M65 47.669V22.5104L61.6205 18.7586L55.0726 16.7724L37.1188 23.8345L32.1551 32.2207" stroke="#C59878"/>
<rect x="37.1188" y="3.97243" width="19.8548" height="27.5862" rx="9.92739" fill="#F2EEEE"/>
<rect x="7.97029" y="3.97243" width="19.8548" height="53.4069" rx="9.92739" fill="#F2EEEE"/>
</svg>
